<svg viewBox="0 0 36 36" xmlns="http://www.w3.org/2000/svg"><path d="M23.23 9.391c.737-.024 1.4.44 1.633 1.14l1.437 4.35c.22.662.002 1.392-.545 1.828l-2.967 2.365a1.664 1.664 0 01-1.945.095l-3.815-2.48a1.665 1.665 0 01-.694-1.844l1.141-4.096a1.67 1.67 0 011.552-1.22l4.203-.138z"></path><path fill-rule="evenodd" clip-rule="evenodd" d="M11.52 3.38c8.056-3.581 17.527.058 21.1 8.116a15.893 15.893 0 01.3 12.238 15.915 15.915 0 01-8.44 8.875A15.953 15.953 0 0117.988 34c-1.937 0-3.878-.358-5.74-1.074a15.872 15.872 0 01-8.866-8.43 15.89 15.89 0 01-.301-12.24 15.915 15.915 0 018.44-8.874zm18.482 19.348l1.424-.838c.669-2.283.752-4.663.236-6.956a2.437 2.437 0 01-.202-.204c-.655-.96-1.84-2.618-2.998-3.837l-.4-.525c-.375-.702-1.538-2.766-3.018-4.347a.934.934 0 00-.063-.034 1.018 1.018 0 01-.063-.035l.01-.018c.013-.023.026-.045.037-.069a14.085 14.085 0 00-3.97-1.536c-.802.467-2.339 1.269-2.859 1.246-.123.016-.322.036-.58.06-1.22.118-3.778.364-6.084 1.083a8.43 8.43 0 00-.33.108 4.13 4.13 0 01-.741.193c-.146-.013-.346-.22-.518-.413A13.866 13.866 0 007.45 8.832l1.49 4.688c.19.451.201.949.026 1.407-.313.822-.853 2.225-1.357 3.47a1.907 1.907 0 01-2.63.984l-.935-.473c.105 1.627.481 3.24 1.162 4.775a13.851 13.851 0 005.705 6.374c.04-.255.087-.55.136-.843a1.92 1.92 0 011.795-1.591c1.742-.09 3.119-.15 3.984-.138.396.006.758.13 1.078.365.397.29 1.008.639 1.621.99 1.1.627 2.21 1.26 2.121 1.577-.15.543-.919 1.051-1.62 1.414a14.045 14.045 0 003.642-1.05 14.146 14.146 0 002.928-1.771c1.355-1.976 2.587-4.434 3.04-5.695.094-.252.173-.429.366-.587z"></path></svg>