<svg viewBox="0 0 36 36" xmlns="http://www.w3.org/2000/svg"><path d="M25.406 15.49a1.25 1.25 0 11-2.5 0 1.25 1.25 0 012.5 0z"></path><path fill-rule="evenodd" clip-rule="evenodd" d="M29.395 15.87c.77.89 3.93 4.63 4.48 6.48.351 1.17.121 3.47-.78 4.89-.63.99-1.39 1.29-1.93 1.38-2.2.33-3.3-.78-3.41-.9a.847.847 0 01-.14-.19l-.86-1.57c-.03 0-.06-.01-.08-.02-1.15 1.27-4.23 3.65-11.27 3.65-.079 0-.16-.002-.242-.005-.085-.002-.172-.005-.258-.005-.01.74.01 1.5.09 2.32a.615.615 0 01-.005.07c-.002.023-.005.045-.005.07a.251.251 0 000 .075.251.251 0 010 .075l-.008.014a.066.066 0 00-.012.036l-.06.15-.022.046a1.18 1.18 0 01-.078.144c-.03.04-.06.07-.1.11-.05.05-.1.09-.16.13-.04.03-.08.06-.13.08-.07.03-.14.05-.22.07-.015 0-.03.005-.045.01s-.03.01-.045.01c-.04.01-.07.01-.1.01h-.01c-.06 0-.12-.01-.18-.02-11.71-2.25-11.85-13.04-11.85-13.15 0-.1.03-.2.06-.29l-.01-.01c.08-.27 2.23-6.74 13.06-11.18.39-2.7 2.68-3.82 5.29-5.09l1.04-.5.35 1.1c.055.177.117.357.18.54l.15.45.016.048c.545 1.615 1.103 3.268.994 4.832l4.36 2.73c.72.53 1.2 1.2 1.46 1.97l.48 1.44zm-3.08-1.77l-2.96-1.85c-.909.97-1.909 2.11-2.71 3.47 1.13.92 4.97 4.04 7.71 5.87.57-.73 1.16-1.37 1.6-1.84-.75-.99-1.56-1.99-2.2-2.72-.08-.1-.15-.21-.19-.33l-.55-1.63c-.13-.38-.37-.72-.7-.97zm-7.709 7.19c-2.19 1.64-3.42 4.08-3.67 7.29 6.33.09 9.349-1.78 10.62-2.96-1.56-.46-3.83-1.17-4.9-1.75-1-.54-1.64-1.69-2.05-2.58zm2.999.82c1.02.55 3.68 1.36 5.27 1.81.23-.5.531-1.02.88-1.52-3.12-2.099-7.596-5.782-8.044-6.15l-.036-.03-.31-.26.2-.37c.84-1.54 1.93-2.81 2.93-3.88l-1.02-.63c-.36-.23-.52-.66-.43-1.07h-.01c.27-1.21-.28-2.85-.82-4.44-2.26 1.16-3.16 1.91-3.2 3.51l-.02.66-.62.24c-9.61 3.77-12.06 9.13-12.4 10.02.06 1.16.78 8.46 8.94 10.71-.22-5.42 1.69-9.47 5.58-11.74a1 1 0 01.95-.03c.38.19.52.5.77 1.06.25.58.79 1.79 1.39 2.11zm9.261 4.53c.22-.03.42-.28.54-.47.59-.94.74-2.61.55-3.25-.15-.51-.71-1.39-1.39-2.35-1.37 1.47-2.28 2.69-2.73 3.65.19.09.36.22.46.41l.99 1.78c.15.1.66.37 1.58.23z"></path></svg>